<svg xmlns="http://www.w3.org/2000/svg" width="805" height="600"><rect width="805" height="600" x="0" y="0" fill="#FFFFFF" id="background"/><g id="viz"><g transform="translate(0,0)"><g transform="translate(15,20)"><g><path fill="#ff2d55" d="M0,-3C55.31384434884631,-3,55.31384434884631,-3,110.62768869769262,-3C165.94153304653892,-3,165.94153304653892,420,221.25537739538524,420C276.7207665232695,420,276.7207665232695,279,332.18615565115374,279C387.5,279,387.5,-3,442.81384434884626,-3C498.1276886976926,-3,498.1276886976926,138,553.4415330465389,138C608.7553773953853,138,608.7553773953853,138,664.0692217442315,138C719.5346108721158,138,719.5346108721158,-3,775,-3L775,137C719.5346108721158,137,719.5346108721158,278,664.0692217442315,278C608.7553773953853,278,608.7553773953853,278,553.4415330465389,278C498.1276886976926,278,498.1276886976926,137,442.81384434884626,137C387.5,137,387.5,419,332.18615565115374,419C276.7207665232695,419,276.7207665232695,560,221.25537739538524,560C165.94153304653892,560,165.94153304653892,137,110.62768869769262,137C55.31384434884631,137,55.31384434884631,137,0,137Z"><title>Verano</title></path><path fill="#ffcc00" d="M0,138C55.31384434884631,138,55.31384434884631,420,110.62768869769262,420C165.94153304653892,420,165.94153304653892,-3,221.25537739538524,-3C276.7207665232695,-3,276.7207665232695,-3,332.18615565115374,-3C387.5,-3,387.5,279,442.81384434884626,279C498.1276886976926,279,498.1276886976926,420,553.4415330465389,420C608.7553773953853,420,608.7553773953853,-3,664.0692217442315,-3C719.5346108721158,-3,719.5346108721158,138,775,138L775,278C719.5346108721158,278,719.5346108721158,137,664.0692217442315,137C608.7553773953853,137,608.7553773953853,560,553.4415330465389,560C498.1276886976926,560,498.1276886976926,419,442.81384434884626,419C387.5,419,387.5,137,332.18615565115374,137C276.7207665232695,137,276.7207665232695,137,221.25537739538524,137C165.94153304653892,137,165.94153304653892,560,110.62768869769262,560C55.31384434884631,560,55.31384434884631,278,0,278Z"><title>Otoño</title></path><path fill="#007aff" d="M0,279C55.31384434884631,279,55.31384434884631,279,110.62768869769262,279C165.94153304653892,279,165.94153304653892,138,221.25537739538524,138C276.7207665232695,138,276.7207665232695,138,332.18615565115374,138C387.5,138,387.5,138,442.81384434884626,138C498.1276886976926,138,498.1276886976926,279,553.4415330465389,279C608.7553773953853,279,608.7553773953853,279,664.0692217442315,279C719.5346108721158,279,719.5346108721158,279,775,279L775,419C719.5346108721158,419,719.5346108721158,419,664.0692217442315,419C608.7553773953853,419,608.7553773953853,419,553.4415330465389,419C498.1276886976926,419,498.1276886976926,278,442.81384434884626,278C387.5,278,387.5,278,332.18615565115374,278C276.7207665232695,278,276.7207665232695,278,221.25537739538524,278C165.94153304653892,278,165.94153304653892,419,110.62768869769262,419C55.31384434884631,419,55.31384434884631,419,0,419Z"><title>Invierno</title></path><path fill="#4cd964" d="M0,420C55.31384434884631,420,55.31384434884631,138,110.62768869769262,138C165.94153304653892,138,165.94153304653892,279,221.25537739538524,279C276.7207665232695,279,276.7207665232695,420,332.18615565115374,420C387.5,420,387.5,420,442.81384434884626,420C498.1276886976926,420,498.1276886976926,-3,553.4415330465389,-3C608.7553773953853,-3,608.7553773953853,420,664.0692217442315,420C719.5346108721158,420,719.5346108721158,420,775,420L775,560C719.5346108721158,560,719.5346108721158,560,664.0692217442315,560C608.7553773953853,560,608.7553773953853,137,553.4415330465389,137C498.1276886976926,137,498.1276886976926,560,442.81384434884626,560C387.5,560,387.5,560,332.18615565115374,560C276.7207665232695,560,276.7207665232695,419,221.25537739538524,419C165.94153304653892,419,165.94153304653892,278,110.62768869769262,278C55.31384434884631,278,55.31384434884631,560,0,560Z"><title>Primavera</title></path></g><g id="xAxis" transform="translate(0,560)" fill="none" font-size="10" font-family="sans-serif" text-anchor="middle"><path class="domain" stroke="currentColor" d="M0.5,0.5H775.5"/><g class="tick" opacity="1" transform="translate(0.5,0)"><line stroke="currentColor" y2="6"/><text fill="currentColor" y="9" dy="0.71em">2018</text></g><g class="tick" opacity="1" transform="translate(111.12768869769262,0)"><line stroke="currentColor" y2="6"/><text fill="currentColor" y="9" dy="0.71em">2019</text></g><g class="tick" opacity="1" transform="translate(221.75537739538524,0)"><line stroke="currentColor" y2="6"/><text fill="currentColor" y="9" dy="0.71em">2020</text></g><g class="tick" opacity="1" transform="translate(332.68615565115374,0)"><line stroke="currentColor" y2="6"/><text fill="currentColor" y="9" dy="0.71em">2021</text></g><g class="tick" opacity="1" transform="translate(443.31384434884626,0)"><line stroke="currentColor" y2="6"/><text fill="currentColor" y="9" dy="0.71em">2022</text></g><g class="tick" opacity="1" transform="translate(553.9415330465389,0)"><line stroke="currentColor" y2="6"/><text fill="currentColor" y="9" dy="0.71em">2023</text></g><g class="tick" opacity="1" transform="translate(664.5692217442315,0)"><line stroke="currentColor" y2="6"/><text fill="currentColor" y="9" dy="0.71em">2024</text></g><g class="tick" opacity="1" transform="translate(775.5,0)"><line stroke="currentColor" y2="6"/><text fill="currentColor" y="9" dy="0.71em">2025</text></g></g><text style="font-family: Arial, sans-serif; font-size: 12px; fill: rgb(123, 123, 123); font-weight: bold;" y="556" x="775" text-anchor="end">start_year</text><text style="font-family: Arial, sans-serif; font-size: 12px; fill: rgb(123, 123, 123); font-weight: bold;" x="4" text-anchor="start" dominant-baseline="hanging"/><g id="labels"><text x="0" y="67" text-anchor="start" alignment-baseline="middle" style="font-family: Arial, sans-serif; font-size: 10px; fill: black; font-weight: bold;">Verano</text><text x="0" y="208" text-anchor="start" alignment-baseline="middle" style="font-family: Arial, sans-serif; font-size: 10px; fill: black; font-weight: bold;">Otoño</text><text x="0" y="349" text-anchor="start" alignment-baseline="middle" style="font-family: Arial, sans-serif; font-size: 10px; fill: black; font-weight: bold;">Invierno</text><text x="0" y="490" text-anchor="start" alignment-baseline="middle" style="font-family: Arial, sans-serif; font-size: 10px; fill: black; font-weight: bold;">Primavera</text></g></g><text x="4" y="4" style="font-family: Arial, sans-serif; font-size: 12px; fill: black; font-weight: bold; dominant-baseline: hanging;"/></g></g></svg>