<svg xmlns="http://www.w3.org/2000/svg" width="805" height="600"><rect width="805" height="600" x="0" y="0" fill="#FFFFFF" id="background"/><g id="viz"><g transform="translate(0,0)"><g transform="translate(15,-25)"><g><path fill="#ff2d55" d="M0,546.6489344807296C55.31384434884631,546.6489344807296,55.31384434884631,480.6212227186708,110.62768869769262,480.6212227186708C165.94153304653892,480.6212227186708,165.94153304653892,52.00000000000002,221.25537739538524,52.00000000000002C276.7207665232695,52.00000000000002,276.7207665232695,228.54850275409478,332.18615565115374,228.54850275409478C387.5,228.54850275409478,387.5,485.8825708324216,442.81384434884626,485.8825708324216C498.1276886976926,485.8825708324216,498.1276886976926,388.00572800207897,553.4415330465389,388.00572800207897C608.7553773953853,388.00572800207897,608.7553773953853,367.55982715635304,664.0692217442315,367.55982715635304C719.5346108721158,367.55982715635304,719.5346108721158,479.44576206131427,775,479.44576206131427L775,605C719.5346108721158,605,719.5346108721158,490.5132398037603,664.0692217442315,490.5132398037603C608.7553773953853,490.5132398037603,608.7553773953853,500.549678579069,553.4415330465389,500.549678579069C498.1276886976926,500.549678579069,498.1276886976926,605,442.81384434884626,605C387.5,605,387.5,370.4314830535276,332.18615565115374,370.4314830535276C276.7207665232695,370.4314830535276,276.7207665232695,291.34863231104555,221.25537739538524,291.34863231104555C165.94153304653892,291.34863231104555,165.94153304653892,605,110.62768869769262,605C55.31384434884631,605,55.31384434884631,605,0,605Z"><title>Verano</title></path><path fill="#ffd60a" d="M0,398.0819574617127C55.31384434884631,398.0819574617127,55.31384434884631,52.00000000000002,110.62768869769262,52.00000000000002C165.94153304653892,52.00000000000002,165.94153304653892,526.4628654654784,221.25537739538524,526.4628654654784C276.7207665232695,526.4628654654784,276.7207665232695,503.5636294014138,332.18615565115374,503.5636294014138C387.5,503.5636294014138,387.5,206.4399159237942,442.81384434884626,206.4399159237942C498.1276886976926,206.4399159237942,498.1276886976926,51.99999999999995,553.4415330465389,51.99999999999995C608.7553773953853,51.99999999999995,608.7553773953853,491.5132398037603,664.0692217442315,491.5132398037603C719.5346108721158,491.5132398037603,719.5346108721158,349.33909283033364,775,349.33909283033364L775,478.44576206131427C719.5346108721158,478.44576206131427,719.5346108721158,605,664.0692217442315,605C608.7553773953853,605,608.7553773953853,270.9439584844132,553.4415330465389,270.9439584844132C498.1276886976926,270.9439584844132,498.1276886976926,359.6048946358856,442.81384434884626,359.6048946358856C387.5,359.6048946358856,387.5,605,332.18615565115374,605C276.7207665232695,605,276.7207665232695,605,221.25537739538524,605C165.94153304653892,605,165.94153304653892,202.586427415971,110.62768869769262,202.586427415971C55.31384434884631,202.586427415971,55.31384434884631,545.6489344807296,0,545.6489344807296Z"><title>Otoño</title></path><path fill="#0a84ff" d="M0,226.47389200884427C55.31384434884631,226.47389200884427,55.31384434884631,203.586427415971,110.62768869769262,203.586427415971C165.94153304653892,203.586427415971,165.94153304653892,413.13569515008516,221.25537739538524,413.13569515008516C276.7207665232695,413.13569515008516,276.7207665232695,371.4314830535276,332.18615565115374,371.4314830535276C387.5,371.4314830535276,387.5,360.6048946358856,442.81384434884626,360.6048946358856C498.1276886976926,360.6048946358856,498.1276886976926,271.9439584844132,553.4415330465389,271.9439584844132C608.7553773953853,271.9439584844132,608.7553773953853,239.38702728579597,664.0692217442315,239.38702728579597C719.5346108721158,239.38702728579597,719.5346108721158,204.2780755574081,775,204.2780755574081L775,348.33909283033364C719.5346108721158,348.33909283033364,719.5346108721158,366.55982715635304,664.0692217442315,366.55982715635304C608.7553773953853,366.55982715635304,608.7553773953853,387.00572800207897,553.4415330465389,387.00572800207897C498.1276886976926,387.00572800207897,498.1276886976926,484.8825708324216,442.81384434884626,484.8825708324216C387.5,484.8825708324216,387.5,502.5636294014138,332.18615565115374,502.5636294014138C276.7207665232695,502.5636294014138,276.7207665232695,525.4628654654784,221.25537739538524,525.4628654654784C165.94153304653892,525.4628654654784,165.94153304653892,341.3204279072175,110.62768869769262,341.3204279072175C55.31384434884631,341.3204279072175,55.31384434884631,397.0819574617127,0,397.0819574617127Z"><title>Invierno</title></path><path fill="#32d74b" d="M0,51.99999999999995C55.31384434884631,51.99999999999995,55.31384434884631,342.3204279072175,110.62768869769262,342.3204279072175C165.94153304653892,342.3204279072175,165.94153304653892,292.34863231104555,221.25537739538524,292.34863231104555C276.7207665232695,292.34863231104555,276.7207665232695,52.00000000000002,332.18615565115374,52.00000000000002C387.5,52.00000000000002,387.5,52.00000000000002,442.81384434884626,52.00000000000002C498.1276886976926,52.00000000000002,498.1276886976926,501.549678579069,553.4415330465389,501.549678579069C608.7553773953853,501.549678579069,608.7553773953853,52.00000000000002,664.0692217442315,52.00000000000002C719.5346108721158,52.00000000000002,719.5346108721158,52.000000000000085,775,52.000000000000085L775,203.2780755574081C719.5346108721158,203.2780755574081,719.5346108721158,238.38702728579597,664.0692217442315,238.38702728579597C608.7553773953853,238.38702728579597,608.7553773953853,605,553.4415330465389,605C498.1276886976926,605,498.1276886976926,205.4399159237942,442.81384434884626,205.4399159237942C387.5,205.4399159237942,387.5,227.54850275409478,332.18615565115374,227.54850275409478C276.7207665232695,227.54850275409478,276.7207665232695,412.13569515008516,221.25537739538524,412.13569515008516C165.94153304653892,412.13569515008516,165.94153304653892,479.6212227186708,110.62768869769262,479.6212227186708C55.31384434884631,479.6212227186708,55.31384434884631,225.47389200884427,0,225.47389200884427Z"><title>Primavera</title></path></g><g id="xAxis" transform="translate(0,605)" fill="none" font-size="10" font-family="sans-serif" text-anchor="middle"><path class="domain" stroke="currentColor" d="M0,0H775"/><g class="tick" opacity="1" transform="translate(0,0)"><line stroke="currentColor" y2="6"/><text fill="currentColor" y="9" dy="0.71em">2018</text></g><g class="tick" opacity="1" transform="translate(110.62768869769262,0)"><line stroke="currentColor" y2="6"/><text fill="currentColor" y="9" dy="0.71em">2019</text></g><g class="tick" opacity="1" transform="translate(221.25537739538524,0)"><line stroke="currentColor" y2="6"/><text fill="currentColor" y="9" dy="0.71em">2020</text></g><g class="tick" opacity="1" transform="translate(332.18615565115374,0)"><line stroke="currentColor" y2="6"/><text fill="currentColor" y="9" dy="0.71em">2021</text></g><g class="tick" opacity="1" transform="translate(442.81384434884626,0)"><line stroke="currentColor" y2="6"/><text fill="currentColor" y="9" dy="0.71em">2022</text></g><g class="tick" opacity="1" transform="translate(553.4415330465389,0)"><line stroke="currentColor" y2="6"/><text fill="currentColor" y="9" dy="0.71em">2023</text></g><g class="tick" opacity="1" transform="translate(664.0692217442315,0)"><line stroke="currentColor" y2="6"/><text fill="currentColor" y="9" dy="0.71em">2024</text></g><g class="tick" opacity="1" transform="translate(775,0)"><line stroke="currentColor" y2="6"/><text fill="currentColor" y="9" dy="0.71em">2025</text></g></g><text style="font-family: Arial, sans-serif; font-size: 12px; fill: rgb(123, 123, 123); font-weight: bold;" y="601" x="775" text-anchor="end">start_year</text><text style="font-family: Arial, sans-serif; font-size: 12px; fill: rgb(123, 123, 123); font-weight: bold;" x="4" text-anchor="start" dominant-baseline="hanging">percentage</text><g id="labels"><text x="221.25537739538524" y="171.67431615552277" text-anchor="middle" alignment-baseline="middle" style="font-family: Arial, sans-serif; font-size: 10px; fill: black; font-weight: bold; stroke-width: 2px; paint-order: stroke; stroke: white; stroke-linecap: round; stroke-linejoin: round;">Verano</text><text x="553.4415330465389" y="161.47197924220654" text-anchor="middle" alignment-baseline="middle" style="font-family: Arial, sans-serif; font-size: 10px; fill: black; font-weight: bold; stroke-width: 2px; paint-order: stroke; stroke: white; stroke-linecap: round; stroke-linejoin: round;">Otoño</text><text x="0" y="311.7779247352784" text-anchor="start" alignment-baseline="middle" style="font-family: Arial, sans-serif; font-size: 10px; fill: black; font-weight: bold; stroke-width: 2px; paint-order: stroke; stroke: white; stroke-linecap: round; stroke-linejoin: round;">Invierno</text><text x="664.0692217442315" y="145.193513642898" text-anchor="middle" alignment-baseline="middle" style="font-family: Arial, sans-serif; font-size: 10px; fill: black; font-weight: bold; stroke-width: 2px; paint-order: stroke; stroke: white; stroke-linecap: round; stroke-linejoin: round;">Primavera</text></g></g><text x="4" y="4" style="font-family: Arial, sans-serif; font-size: 12px; fill: black; font-weight: bold; dominant-baseline: hanging;"/></g></g></svg>